<svg width="57" height="57" viewBox="0 0 57 57" fill="none" xmlns="http://www.w3.org/2000/svg">
<mask id="path-1-inside-1_251_1864" fill="white">
<path d="M44.08 17.9097C44.08 16.6129 43.5648 15.3692 42.6478 14.4523C41.7309 13.5353 40.4872 13.0201 39.1904 13.0201L36.9679 13.0201C35.6768 13.0194 34.4384 12.5081 33.523 11.5977L31.9672 10.0419C31.5128 9.58499 30.9726 9.22237 30.3776 8.97493C29.7825 8.72748 29.1445 8.6001 28.5 8.6001C27.8556 8.6001 27.2176 8.72748 26.6226 8.97493C26.0275 9.22237 25.4873 9.58499 25.0329 10.0419L23.4771 11.5977C22.5617 12.5081 21.3233 13.0194 20.0322 13.0201H17.8097C16.5129 13.0201 15.2692 13.5353 14.3523 14.4523C13.4353 15.3692 12.9201 16.6129 12.9201 17.9097V20.1322C12.9194 21.4233 12.4081 22.6617 11.4977 23.5771L9.94195 25.1329C9.485 25.5873 9.12238 26.1275 8.87494 26.7225C8.62749 27.3176 8.5001 27.9556 8.5001 28.6C8.5001 29.2445 8.62749 29.8825 8.87494 30.4775C9.12238 31.0726 9.485 31.6128 9.94195 32.0672L11.4977 33.623C12.4081 34.5384 12.9194 35.7768 12.9201 37.0679L12.9201 39.2904C12.9201 40.5872 13.4353 41.8309 14.3523 42.7478C15.2692 43.6648 16.5129 44.18 17.8097 44.18L20.0322 44.18C21.3233 44.1807 22.5617 44.692 23.4771 45.6024L25.0329 47.1581C25.4873 47.6151 26.0275 47.9777 26.6226 48.2252C27.2176 48.4726 27.8556 48.6 28.5 48.6C29.1445 48.6 29.7825 48.4726 30.3776 48.2252C30.9726 47.9777 31.5128 47.6151 31.9672 47.1581L33.523 45.6024C34.4384 44.692 35.6768 44.1807 36.9679 44.18H39.1904C40.4872 44.18 41.7309 43.6648 42.6478 42.7478C43.5648 41.8309 44.08 40.5872 44.08 39.2904V37.0679C44.0807 35.7768 44.592 34.5384 45.5024 33.623L47.0582 32.0672C47.5151 31.6128 47.8777 31.0726 48.1252 30.4775C48.3726 29.8825 48.5 29.2445 48.5 28.6C48.5 27.9556 48.3726 27.3176 48.1252 26.7225C47.8777 26.1275 47.5151 25.5873 47.0582 25.1329L45.5024 23.5771C44.592 22.6617 44.0807 21.4233 44.08 20.1322V17.9097Z"/>
</mask>
<path d="M44.08 17.9097C44.08 16.6129 43.5648 15.3692 42.6478 14.4523C41.7309 13.5353 40.4872 13.0201 39.1904 13.0201L36.9679 13.0201C35.6768 13.0194 34.4384 12.5081 33.523 11.5977L31.9672 10.0419C31.5128 9.58499 30.9726 9.22237 30.3776 8.97493C29.7825 8.72748 29.1445 8.6001 28.5 8.6001C27.8556 8.6001 27.2176 8.72748 26.6226 8.97493C26.0275 9.22237 25.4873 9.58499 25.0329 10.0419L23.4771 11.5977C22.5617 12.5081 21.3233 13.0194 20.0322 13.0201H17.8097C16.5129 13.0201 15.2692 13.5353 14.3523 14.4523C13.4353 15.3692 12.9201 16.6129 12.9201 17.9097V20.1322C12.9194 21.4233 12.4081 22.6617 11.4977 23.5771L9.94195 25.1329C9.485 25.5873 9.12238 26.1275 8.87494 26.7225C8.62749 27.3176 8.5001 27.9556 8.5001 28.6C8.5001 29.2445 8.62749 29.8825 8.87494 30.4775C9.12238 31.0726 9.485 31.6128 9.94195 32.0672L11.4977 33.623C12.4081 34.5384 12.9194 35.7768 12.9201 37.0679L12.9201 39.2904C12.9201 40.5872 13.4353 41.8309 14.3523 42.7478C15.2692 43.6648 16.5129 44.18 17.8097 44.18L20.0322 44.18C21.3233 44.1807 22.5617 44.692 23.4771 45.6024L25.0329 47.1581C25.4873 47.6151 26.0275 47.9777 26.6226 48.2252C27.2176 48.4726 27.8556 48.6 28.5 48.6C29.1445 48.6 29.7825 48.4726 30.3776 48.2252C30.9726 47.9777 31.5128 47.6151 31.9672 47.1581L33.523 45.6024C34.4384 44.692 35.6768 44.1807 36.9679 44.18H39.1904C40.4872 44.18 41.7309 43.6648 42.6478 42.7478C43.5648 41.8309 44.08 40.5872 44.08 39.2904V37.0679C44.0807 35.7768 44.592 34.5384 45.5024 33.623L47.0582 32.0672C47.5151 31.6128 47.8777 31.0726 48.1252 30.4775C48.3726 29.8825 48.5 29.2445 48.5 28.6C48.5 27.9556 48.3726 27.3176 48.1252 26.7225C47.8777 26.1275 47.5151 25.5873 47.0582 25.1329L45.5024 23.5771C44.592 22.6617 44.0807 21.4233 44.08 20.1322V17.9097Z" fill="#CDD6F9"/>
<path d="M47.08 17.9097C47.08 19.5665 45.7368 20.9097 44.08 20.9097C42.4231 20.9097 41.08 19.5665 41.08 17.9097H47.08ZM39.1904 13.0201V10.0201V13.0201ZM36.9679 13.0201V16.0201L36.9662 16.0201L36.9679 13.0201ZM33.523 11.5977L31.4076 13.725L31.4016 13.719L33.523 11.5977ZM31.9672 10.0419L29.8459 12.1633L29.8399 12.1573L31.9672 10.0419ZM28.5 8.6001V5.6001V8.6001ZM25.0329 10.0419L27.1602 12.1573L27.1542 12.1633L25.0329 10.0419ZM23.4771 11.5977L25.5985 13.719L25.5925 13.725L23.4771 11.5977ZM20.0322 13.0201L20.0339 16.0201H20.0322V13.0201ZM17.8097 13.0201V10.0201V13.0201ZM12.9201 20.1322H15.9201V20.1339L12.9201 20.1322ZM11.4977 23.5771L13.625 25.6925L13.619 25.6985L11.4977 23.5771ZM9.94195 25.1329L12.0633 27.2542L12.0573 27.2602L9.94195 25.1329ZM9.94195 32.0672L12.0573 29.9399L12.0633 29.9459L9.94195 32.0672ZM11.4977 33.623L13.619 31.5016L13.625 31.5076L11.4977 33.623ZM12.9201 37.0679L15.9201 37.0662V37.0679H12.9201ZM20.0322 44.18V41.18H20.0339L20.0322 44.18ZM23.4771 45.6024L25.5925 43.4751L25.5985 43.4811L23.4771 45.6024ZM25.0329 47.1581L27.1542 45.0368L27.1602 45.0428L25.0329 47.1581ZM31.9672 47.1581L29.8399 45.0428L29.8459 45.0368L31.9672 47.1581ZM33.523 45.6024L31.4016 43.4811L31.4076 43.4751L33.523 45.6024ZM36.9679 44.18L36.9662 41.18H36.9679V44.18ZM44.08 39.2904H47.08H44.08ZM44.08 37.0679H41.08L41.08 37.0662L44.08 37.0679ZM45.5024 33.623L43.3751 31.5076L43.3811 31.5016L45.5024 33.623ZM47.0582 32.0672L44.9368 29.9459L44.9428 29.9399L47.0582 32.0672ZM48.5 28.6H51.5H48.5ZM47.0582 25.1329L44.9428 27.2602L44.9368 27.2542L47.0582 25.1329ZM45.5024 23.5771L43.3811 25.6985L43.3751 25.6925L45.5024 23.5771ZM44.08 20.1322L41.08 20.1339V20.1322H44.08ZM41.08 17.9097C41.08 16.2528 42.4231 14.9097 44.08 14.9097C45.7368 14.9097 47.08 16.2528 47.08 17.9097H41.08ZM41.08 17.9097C41.08 17.4085 40.8809 16.9279 40.5265 16.5736L44.7692 12.3309C46.2487 13.8105 47.08 15.8172 47.08 17.9097H41.08ZM40.5265 16.5736C40.1722 16.2192 39.6915 16.0201 39.1904 16.0201V10.0201C41.2829 10.0201 43.2896 10.8514 44.7692 12.3309L40.5265 16.5736ZM39.1904 16.0201H36.9679V10.0201H39.1904V16.0201ZM36.9662 16.0201C34.883 16.0189 32.8848 15.1939 31.4076 13.725L35.6383 9.47044C35.9921 9.82224 36.4707 10.0198 36.9696 10.0201L36.9662 16.0201ZM31.4016 13.719L29.8459 12.1633L34.0885 7.92063L35.6443 9.47639L31.4016 13.719ZM29.8399 12.1573C29.6643 11.9807 29.4555 11.8406 29.2256 11.7449L31.5295 6.2049C32.4896 6.60417 33.3613 7.18928 34.0945 7.92659L29.8399 12.1573ZM29.2256 11.7449C28.9957 11.6493 28.7491 11.6001 28.5 11.6001V5.6001C29.5399 5.6001 30.5694 5.80564 31.5295 6.2049L29.2256 11.7449ZM28.5 11.6001C28.251 11.6001 28.0044 11.6493 27.7745 11.7449L25.4706 6.2049C26.4307 5.80564 27.4602 5.6001 28.5 5.6001V11.6001ZM27.7745 11.7449C27.5446 11.8406 27.3358 11.9807 27.1602 12.1573L22.9056 7.92659C23.6388 7.18928 24.5105 6.60417 25.4706 6.2049L27.7745 11.7449ZM27.1542 12.1633L25.5985 13.719L21.3558 9.47639L22.9116 7.92062L27.1542 12.1633ZM25.5925 13.725C24.1153 15.1939 22.1171 16.0189 20.0339 16.0201L20.0305 10.0201C20.5294 10.0198 21.008 9.82225 21.3618 9.47044L25.5925 13.725ZM20.0322 16.0201H17.8097V10.0201H20.0322V16.0201ZM17.8097 16.0201C17.3086 16.0201 16.8279 16.2192 16.4736 16.5736L12.2309 12.3309C13.7105 10.8514 15.7173 10.0201 17.8097 10.0201V16.0201ZM16.4736 16.5736C16.1192 16.9279 15.9201 17.4085 15.9201 17.9097L9.92014 17.9097C9.92014 15.8172 10.7514 13.8105 12.2309 12.3309L16.4736 16.5736ZM15.9201 17.9097V20.1322L9.92014 20.1322V17.9097L15.9201 17.9097ZM15.9201 20.1339C15.9189 22.2171 15.0939 24.2153 13.625 25.6925L9.37045 21.4618C9.72225 21.108 9.91985 20.6294 9.92014 20.1305L15.9201 20.1339ZM13.619 25.6985L12.0633 27.2542L7.82063 23.0116L9.3764 21.4558L13.619 25.6985ZM12.0573 27.2602C11.8807 27.4358 11.7406 27.6445 11.645 27.8745L6.10491 25.5706C6.50417 24.6105 7.08928 23.7388 7.8266 23.0056L12.0573 27.2602ZM11.645 27.8745C11.5493 28.1044 11.5001 28.351 11.5001 28.6H5.5001C5.5001 27.5602 5.70565 26.5307 6.10491 25.5706L11.645 27.8745ZM11.5001 28.6C11.5001 28.8491 11.5493 29.0956 11.645 29.3256L6.10491 31.6295C5.70565 30.6694 5.5001 29.6399 5.5001 28.6H11.5001ZM11.645 29.3256C11.7406 29.5556 11.8807 29.7643 12.0573 29.9399L7.8266 34.1945C7.08928 33.4613 6.50417 32.5896 6.10491 31.6295L11.645 29.3256ZM12.0633 29.9459L13.619 31.5016L9.3764 35.7443L7.82063 34.1885L12.0633 29.9459ZM13.625 31.5076C15.0939 32.9848 15.9189 34.983 15.9201 37.0662L9.92014 37.0696C9.91985 36.5707 9.72225 36.0921 9.37045 35.7383L13.625 31.5076ZM15.9201 37.0679L15.9201 39.2904H9.92014L9.92014 37.0679H15.9201ZM15.9201 39.2904C15.9201 39.7915 16.1192 40.2722 16.4736 40.6265L12.2309 44.8692C10.7514 43.3896 9.92014 41.3828 9.92014 39.2904H15.9201ZM16.4736 40.6265C16.8279 40.9809 17.3086 41.18 17.8097 41.18V47.18C15.7173 47.18 13.7105 46.3487 12.2309 44.8692L16.4736 40.6265ZM17.8097 41.18L20.0322 41.18V47.18L17.8097 47.18V41.18ZM20.0339 41.18C22.1171 41.1812 24.1153 42.0062 25.5925 43.4751L21.3618 47.7296C21.008 47.3778 20.5294 47.1802 20.0305 47.18L20.0339 41.18ZM25.5985 43.4811L27.1542 45.0368L22.9116 49.2795L21.3558 47.7237L25.5985 43.4811ZM27.1602 45.0428C27.3358 45.2194 27.5445 45.3595 27.7745 45.4551L25.4706 50.9952C24.5105 50.5959 23.6388 50.0108 22.9056 49.2735L27.1602 45.0428ZM27.7745 45.4551C28.0045 45.5508 28.251 45.6 28.5 45.6V51.6C27.4602 51.6 26.4307 51.3944 25.4706 50.9952L27.7745 45.4551ZM28.5 45.6C28.7491 45.6 28.9957 45.5508 29.2256 45.4551L31.5295 50.9952C30.5694 51.3944 29.5399 51.6 28.5 51.6V45.6ZM29.2256 45.4551C29.4556 45.3595 29.6643 45.2194 29.8399 45.0428L34.0945 49.2735C33.3613 50.0108 32.4896 50.5959 31.5295 50.9952L29.2256 45.4551ZM29.8459 45.0368L31.4016 43.4811L35.6443 47.7237L34.0885 49.2795L29.8459 45.0368ZM31.4076 43.4751C32.8848 42.0062 34.883 41.1812 36.9662 41.18L36.9696 47.18C36.4707 47.1802 35.9921 47.3778 35.6383 47.7296L31.4076 43.4751ZM36.9679 41.18H39.1904L39.1904 47.18H36.9679L36.9679 41.18ZM39.1904 41.18C39.6915 41.18 40.1722 40.9809 40.5265 40.6265L44.7692 44.8692C43.2896 46.3487 41.2829 47.18 39.1904 47.18L39.1904 41.18ZM40.5265 40.6265C40.8809 40.2722 41.08 39.7915 41.08 39.2904H47.08C47.08 41.3828 46.2487 43.3896 44.7692 44.8692L40.5265 40.6265ZM41.08 39.2904V37.0679H47.08L47.08 39.2904H41.08ZM41.08 37.0662C41.0812 34.983 41.9062 32.9848 43.3751 31.5076L47.6297 35.7383C47.2779 36.0921 47.0803 36.5707 47.08 37.0696L41.08 37.0662ZM43.3811 31.5016L44.9368 29.9459L49.1795 34.1885L47.6237 35.7443L43.3811 31.5016ZM44.9428 29.9399C45.1194 29.7643 45.2595 29.5555 45.3551 29.3256L50.8952 31.6295C50.4959 32.5896 49.9108 33.4613 49.1735 34.1945L44.9428 29.9399ZM45.3551 29.3256C45.4508 29.0957 45.5 28.8491 45.5 28.6H51.5C51.5 29.6399 51.2945 30.6694 50.8952 31.6295L45.3551 29.3256ZM45.5 28.6C45.5 28.351 45.4508 28.1044 45.3551 27.8745L50.8952 25.5706C51.2945 26.5307 51.5 27.5602 51.5 28.6H45.5ZM45.3551 27.8745C45.2595 27.6445 45.1194 27.4358 44.9428 27.2602L49.1735 23.0056C49.9108 23.7388 50.4959 24.6105 50.8952 25.5706L45.3551 27.8745ZM44.9368 27.2542L43.3811 25.6985L47.6237 21.4558L49.1795 23.0116L44.9368 27.2542ZM43.3751 25.6925C41.9062 24.2153 41.0812 22.2171 41.08 20.1339L47.08 20.1305C47.0803 20.6294 47.2779 21.108 47.6297 21.4618L43.3751 25.6925ZM41.08 20.1322V17.9097H47.08V20.1322H41.08Z" fill="#0432DF" mask="url(#path-1-inside-1_251_1864)"/>
<path d="M19.0739 31.6001V25.7819H22.8011V26.6654H20.1278V28.245H22.5455V29.1285H20.1278V31.6001H19.0739ZM23.7614 31.6001V25.7819H25.9432C26.3902 25.7819 26.7652 25.8596 27.0682 26.0149C27.3731 26.1702 27.6032 26.388 27.7585 26.6683C27.9157 26.9467 27.9943 27.2715 27.9943 27.6427C27.9943 28.0158 27.9148 28.3397 27.7557 28.6143C27.5985 28.887 27.3665 29.0982 27.0597 29.2478C26.7528 29.3956 26.3759 29.4694 25.929 29.4694H24.375V28.5944H25.7869C26.0483 28.5944 26.2623 28.5584 26.429 28.4865C26.5956 28.4126 26.7188 28.3056 26.7983 28.1654C26.8797 28.0234 26.9205 27.8492 26.9205 27.6427C26.9205 27.4363 26.8797 27.2601 26.7983 27.1143C26.7169 26.9666 26.5928 26.8548 26.4261 26.7791C26.2595 26.7014 26.0445 26.6626 25.7812 26.6626H24.8153V31.6001H23.7614ZM26.767 28.9637L28.2074 31.6001H27.0312L25.6165 28.9637H26.767ZM28.9645 31.6001V25.7819H32.7486V26.6654H30.0185V28.245H32.5526V29.1285H30.0185V30.7166H32.7713V31.6001H28.9645ZM33.8239 31.6001V25.7819H37.608V26.6654H34.8778V28.245H37.4119V29.1285H34.8778V30.7166H37.6307V31.6001H33.8239Z" fill="#0432DF"/>
</svg>
