<svg width="57" height="57" viewBox="0 0 57 57" fill="none" xmlns="http://www.w3.org/2000/svg">
<path d="M14.3098 11.1855C14.3697 11.0012 14.6303 11.0012 14.6902 11.1855L15.5777 13.9168C15.6044 13.9992 15.6812 14.055 15.7679 14.055H18.6397C18.8335 14.055 18.914 14.3029 18.7573 14.4168L16.4339 16.1049C16.3638 16.1558 16.3345 16.2461 16.3613 16.3285L17.2487 19.0598C17.3086 19.244 17.0977 19.3973 16.9409 19.2834L14.6176 17.5953C14.5475 17.5444 14.4525 17.5444 14.3824 17.5953L12.0591 19.2834C11.9023 19.3973 11.6914 19.244 11.7513 19.0598L12.6387 16.3285C12.6655 16.2461 12.6362 16.1558 12.5661 16.1049L10.2427 14.4168C10.086 14.3029 10.1665 14.055 10.3603 14.055H13.2321C13.3188 14.055 13.3956 13.9992 13.4223 13.9168L14.3098 11.1855Z" fill="#CDD6F9"/>
<path d="M28.3098 11.1855C28.3697 11.0012 28.6303 11.0012 28.6902 11.1855L29.5777 13.9168C29.6044 13.9992 29.6812 14.055 29.7679 14.055H32.6397C32.8335 14.055 32.914 14.3029 32.7573 14.4168L30.4339 16.1049C30.3638 16.1558 30.3345 16.2461 30.3613 16.3285L31.2487 19.0598C31.3086 19.244 31.0977 19.3973 30.9409 19.2834L28.6176 17.5953C28.5475 17.5444 28.4525 17.5444 28.3824 17.5953L26.0591 19.2834C25.9023 19.3973 25.6914 19.244 25.7513 19.0598L26.6387 16.3285C26.6655 16.2461 26.6362 16.1558 26.5661 16.1049L24.2427 14.4168C24.086 14.3029 24.1665 14.055 24.3603 14.055H27.2321C27.3188 14.055 27.3956 13.9992 27.4223 13.9168L28.3098 11.1855Z" fill="#CDD6F9"/>
<path d="M42.3098 11.1855C42.3697 11.0012 42.6303 11.0012 42.6902 11.1855L43.5777 13.9168C43.6044 13.9992 43.6812 14.055 43.7679 14.055H46.6397C46.8335 14.055 46.914 14.3029 46.7573 14.4168L44.4339 16.1049C44.3638 16.1558 44.3345 16.2461 44.3613 16.3285L45.2487 19.0598C45.3086 19.244 45.0977 19.3973 44.9409 19.2834L42.6176 17.5953C42.5475 17.5444 42.4525 17.5444 42.3824 17.5953L40.0591 19.2834C39.9023 19.3973 39.6914 19.244 39.7513 19.0598L40.6387 16.3285C40.6655 16.2461 40.6362 16.1558 40.5661 16.1049L38.2427 14.4168C38.086 14.3029 38.1665 14.055 38.3603 14.055H41.2321C41.3188 14.055 41.3956 13.9992 41.4223 13.9168L42.3098 11.1855Z" fill="#CDD6F9"/>
<path d="M40.9098 26.4632L34.976 31.6833L29.6893 25.1753C29.5413 24.9934 29.3541 24.8472 29.1417 24.7476C28.9293 24.648 28.6972 24.5976 28.4627 24.6002C28.2281 24.6027 27.9971 24.6582 27.7869 24.7623C27.5768 24.8665 27.3928 25.0167 27.2488 25.2018L22.2038 31.6817L16.0782 26.3868C15.8377 26.1793 15.5395 26.0502 15.2235 26.0168C14.9075 25.9834 14.5889 26.0473 14.3103 26.1999C14.0316 26.3525 13.8062 26.5865 13.6643 26.8707C13.5223 27.1549 13.4706 27.4757 13.516 27.79L15.5 43.6001H41.5L43.4829 27.8633C43.5301 27.5472 43.479 27.2242 43.3364 26.9381C43.1939 26.652 42.9668 26.4166 42.686 26.2638C42.4052 26.111 42.0842 26.0482 41.7665 26.0838C41.4488 26.1195 41.1497 26.2519 40.9098 26.4632Z" fill="#0432DF"/>
<path d="M15.5 45.6001H41.5V47.6001C41.5 48.1524 41.0523 48.6001 40.5 48.6001H16.5C15.9477 48.6001 15.5 48.1524 15.5 47.6001V45.6001Z" fill="#CDD6F9"/>
</svg>
