<svg width="57" height="57" viewBox="0 0 57 57" fill="none" xmlns="http://www.w3.org/2000/svg">
<circle cx="28.5" cy="28.6001" r="18.5" fill="#CDD6F9" stroke="#0432DF" stroke-width="3"/>
<path fill-rule="evenodd" clip-rule="evenodd" d="M24.5 21.6001C23.9477 21.6001 23.5 22.0478 23.5 22.6001V31.6001C23.5 32.1524 23.9477 32.6001 24.5 32.6001C25.0523 32.6001 25.5 32.1524 25.5 31.6001V22.6001C25.5 22.0478 25.0523 21.6001 24.5 21.6001ZM27.5 22.6001C27.5 22.0478 27.9477 21.6001 28.5 21.6001H31C33.4853 21.6001 35.5 23.6148 35.5 26.1001V25.6001C38.2614 25.6001 40.5 27.8387 40.5 30.6001V31.7766C40.5 32.2314 40.1313 32.6001 39.6765 32.6001H35.5H28.5C27.9477 32.6001 27.5 32.1524 27.5 31.6001V22.6001ZM19.5 25.6001C19.5 25.0478 19.9477 24.6001 20.5 24.6001C21.0523 24.6001 21.5 25.0478 21.5 25.6001V31.6001C21.5 32.1524 21.0523 32.6001 20.5 32.6001C19.9477 32.6001 19.5 32.1524 19.5 31.6001V25.6001ZM16.5 27.6001C15.9477 27.6001 15.5 28.0478 15.5 28.6001V31.6001C15.5 32.1524 15.9477 32.6001 16.5 32.6001C17.0523 32.6001 17.5 32.1524 17.5 31.6001V28.6001C17.5 28.0478 17.0523 27.6001 16.5 27.6001Z" fill="#0432DF"/>
</svg>
