<svg width="24" height="17" viewBox="0 0 24 17" fill="none" xmlns="http://www.w3.org/2000/svg">
<path fill-rule="evenodd" clip-rule="evenodd" d="M9.82929 2.09998H23C23.5523 2.09998 24 2.54769 24 3.09998C24 3.65226 23.5523 4.09998 23 4.09998H9.82929C9.41746 5.26517 8.30622 6.09998 7 6.09998C5.69378 6.09998 4.58254 5.26517 4.17071 4.09998H1C0.447716 4.09998 0 3.65226 0 3.09998C0 2.54769 0.447715 2.09998 1 2.09998H4.17071C4.58254 0.934783 5.69378 0.0999756 7 0.0999756C8.30622 0.0999756 9.41746 0.934783 9.82929 2.09998Z" fill="#4C526A"/>
<path fill-rule="evenodd" clip-rule="evenodd" d="M14.1707 12.1H1C0.447716 12.1 0 12.5477 0 13.1C0 13.6523 0.447716 14.1 1 14.1H14.1707C14.5825 15.2652 15.6938 16.1 17 16.1C18.3062 16.1 19.4175 15.2652 19.8293 14.1H23C23.5523 14.1 24 13.6523 24 13.1C24 12.5477 23.5523 12.1 23 12.1H19.8293C19.4175 10.9348 18.3062 10.1 17 10.1C15.6938 10.1 14.5825 10.9348 14.1707 12.1Z" fill="#4C526A"/>
</svg>
