<svg width="37" height="37" viewBox="0 0 37 37" fill="none" xmlns="http://www.w3.org/2000/svg">
<path d="M9.51438 20.2892L9.51445 20.2892L9.522 20.2996C10.7303 21.9682 12.1853 23.4209 13.6963 24.7077L13.7133 24.7222L13.7296 24.7373C14.4196 25.3801 15.5503 26.3493 16.6078 27.1628C17.1373 27.5702 17.6325 27.9262 18.0355 28.1801C18.2302 28.3027 18.3888 28.3922 18.5096 28.4508C18.6442 28.3862 18.8258 28.2741 19.0599 28.098C19.2287 27.9711 19.3963 27.8336 19.5727 27.6887L19.5855 27.6782C19.7476 27.545 19.9262 27.3982 20.0947 27.2742C23.4223 24.7423 26.8382 21.7792 28.5494 18.6251C29.9556 15.6212 29.8553 12.1372 27.8984 10.063C25.2489 7.7008 21.2835 8.18535 19.2893 10.6429L18.4924 11.625L17.7206 10.623C17.1874 9.93088 16.538 9.38743 15.7644 8.98606C12.518 7.71216 9.24532 9.0299 7.90039 11.8676C6.95694 14.8557 7.75826 17.9287 9.51438 20.2892Z" stroke="#4C526A" stroke-width="2"/>
</svg>
